HIERARCHY
ROOT Hips
{
	OFFSET 0.000000 0.000000 0.000000
	CHANNELS 6 Xposition Yposition Zposition Xrotation Yrotation Zrotation
	JOINT LeftUpLeg_virtual
	{
		OFFSET 0.000000 0.000000 0.000000
		CHANNELS 3 Xrotation Yrotation Zrotation
		JOINT LeftUpLeg
		{
			OFFSET 13.026900 -6.336304 -1.092800
			CHANNELS 3 Xrotation Yrotation Zrotation
			JOINT LeftLeg
			{
				OFFSET 0.524474 -46.096886 9.782700
				CHANNELS 3 Xrotation Yrotation Zrotation
				JOINT LeftFoot
				{
					OFFSET -0.524474 -53.427422 -12.948200
					CHANNELS 3 Xrotation Yrotation Zrotation
					JOINT LeftToeBase
					{
						OFFSET 0.192200 -14.009700 16.364100
						CHANNELS 3 Xrotation Yrotation Zrotation
						JOINT LeftToe_End
						{
							OFFSET -1.784700 -0.561700 9.474800
							CHANNELS 3 Xrotation Yrotation Zrotation
							End Site
							{
								OFFSET 0 0 0
							}
						}
					}
				}
			}
		}
	}
	JOINT RightUpLeg_virtual
	{
		OFFSET 0.000000 0.000000 0.000000
		CHANNELS 3 Xrotation Yrotation Zrotation
		JOINT RightUpLeg
		{
			OFFSET -12.883000 -6.336304 -1.092800
			CHANNELS 3 Xrotation Yrotation Zrotation
			JOINT RightLeg
			{
				OFFSET -0.524587 -46.096825 9.782800
				CHANNELS 3 Xrotation Yrotation Zrotation
				JOINT RightFoot
				{
					OFFSET 0.524587 -53.427383 -12.948300
					CHANNELS 3 Xrotation Yrotation Zrotation
					JOINT RightToeBase
					{
						OFFSET -0.192200 -14.009700 16.364100
						CHANNELS 3 Xrotation Yrotation Zrotation
						JOINT RightToe_End
						{
							OFFSET 1.784700 -0.561700 9.474800
							CHANNELS 3 Xrotation Yrotation Zrotation
							End Site
							{
								OFFSET 0 0 0
							}
						}
					}
				}
			}
		}
	}
	JOINT Spine_virtual
	{
		OFFSET 0.000000 0.000000 0.000000
		CHANNELS 3 Xrotation Yrotation Zrotation
		JOINT Spine
		{
			OFFSET 0.072000 7.257294 -0.789700
			CHANNELS 3 Xrotation Yrotation Zrotation
			JOINT Spine1
			{
				OFFSET 0.000000 12.508769 -0.658067
				CHANNELS 3 Xrotation Yrotation Zrotation
				JOINT Spine1_split
				{
					OFFSET 0.000000 12.508769 -0.658067
					CHANNELS 3 Xrotation Yrotation Zrotation
					JOINT Spine2
					{
						OFFSET 0.000000 12.508769 -0.658067
						CHANNELS 3 Xrotation Yrotation Zrotation
						JOINT Neck_virtual
						{
							OFFSET 0.000000 0.000000 0.000000
							CHANNELS 3 Xrotation Yrotation Zrotation
							JOINT Neck
							{
								OFFSET 0.000000 14.033295 7.520400
								CHANNELS 3 Xrotation Yrotation Zrotation
								JOINT Head
								{
									OFFSET 0.000000 8.198502 5.703100
									CHANNELS 3 Xrotation Yrotation Zrotation
									JOINT HeadTop_End
									{
										OFFSET 0.000000 17.760803 13.332701
										CHANNELS 3 Xrotation Yrotation Zrotation
										End Site
										{
											OFFSET 0 0 0
										}
									}
								}
							}
						}
						JOINT LeftShoulder_virtual
						{
							OFFSET 0.000000 0.000000 0.000000
							CHANNELS 3 Xrotation Yrotation Zrotation
							JOINT LeftShoulder
							{
								OFFSET 6.292450 5.785301 -0.669000
								CHANNELS 3 Xrotation Yrotation Zrotation
								JOINT LeftShoulder_split
								{
									OFFSET 6.292450 5.785301 -0.669000
									CHANNELS 3 Xrotation Yrotation Zrotation
									JOINT LeftArm
									{
										OFFSET 13.907140 -6.093903 1.965100
										CHANNELS 3 Xrotation Yrotation Zrotation
										JOINT LeftForeArm
										{
											OFFSET 34.140198 0.000000 0.000000
											CHANNELS 3 Xrotation Yrotation Zrotation
											JOINT LeftHand
											{
												OFFSET 40.960209 0.000000 0.000000
												CHANNELS 3 Xrotation Yrotation Zrotation
												End Site
												{
													OFFSET 0 0 0
												}
											}
										}
									}
								}
							}
						}
						JOINT RightShoulder_virtual
						{
							OFFSET 0.000000 0.000000 0.000000
							CHANNELS 3 Xrotation Yrotation Zrotation
							JOINT RightShoulder
							{
								OFFSET -6.292450 5.785301 -0.669000
								CHANNELS 3 Xrotation Yrotation Zrotation
								JOINT RightShoulder_split
								{
									OFFSET -6.292450 5.785301 -0.669000
									CHANNELS 3 Xrotation Yrotation Zrotation
									JOINT RightArm
									{
										OFFSET -13.907140 -6.093903 1.965100
										CHANNELS 3 Xrotation Yrotation Zrotation
										JOINT RightForeArm
										{
											OFFSET -34.140198 0.000000 0.000000
											CHANNELS 3 Xrotation Yrotation Zrotation
											JOINT RightHand
											{
												OFFSET -40.960209 0.000000 0.000000
												CHANNELS 3 Xrotation Yrotation Zrotation
												End Site
												{
													OFFSET 0 0 0
												}
											}
										}
									}
								}
							}
						}
					}
				}
			}
		}
	}
}
MOTION
Frames: 7
Frame Time: 0.03333333
1.938494 67.288795 7.244968 0.000000 0.000000 0.000000 -2.936201 7.078292 -0.077488 -89.111955 -8.084051 10.367325 78.667141 5.335684 -0.419722 17.719027 -7.272965 -7.206348 -4.023450 -0.051448 -0.047860 0.000000 0.000000 0.000000 -3.341300 7.899531 0.091903 -88.471584 10.292593 -10.478331 79.720718 -2.670896 -1.220843 15.511978 1.158025 8.179876 1.523199 1.050964 0.541025 0.000000 0.000000 0.000000 -2.689065 2.260177 -0.380445 10.424180 -0.234332 -2.993110 1.958177 0.695934 -0.437326 1.232549 2.152403 -0.338085 0.000000 0.000000 0.000000 1.081729 0.326696 -0.424540 -0.888432 -4.847199 1.214320 -9.613007 -0.442149 -2.005830 0.000000 0.000000 0.000000 2.141046 -0.313024 -0.466331 0.504888 -12.240289 -5.677500 -6.695771 1.459193 -3.012882 -0.224536 -16.156278 -56.213980 6.444399 -64.725946 5.309672 0.000000 0.000000 0.000000 1.306449 0.447605 0.184504 2.873093 -5.327297 8.259379 4.457734 5.156845 0.718261 -7.338608 34.396956 63.982173 -4.264362 58.260742 -0.165738 0.000000 0.000000 0.000000 
1.790072 67.224022 7.159016 0.000000 0.000000 0.000000 -3.152901 6.864609 -0.000493 -88.950626 -8.136620 10.396156 78.841215 5.279359 -0.436299 17.919160 -7.190973 -7.123367 -4.108816 -0.024736 -0.079070 0.000000 0.000000 0.000000 -3.658342 7.693219 0.195200 -88.468483 10.203224 -10.598035 80.096447 -2.546307 -1.280905 15.416195 1.299073 8.110390 1.762787 1.058637 0.554165 0.000000 0.000000 0.000000 -3.180438 2.364362 -0.415639 10.224312 -0.346139 -2.931387 2.236256 0.696614 -0.379756 1.174938 2.090757 -0.086951 0.000000 0.000000 0.000000 1.273538 0.280416 -0.292978 -1.059067 -4.242923 1.181427 -10.167498 -0.253033 -1.990809 0.000000 0.000000 0.000000 2.257995 -0.261880 -0.442746 0.429617 -12.202096 -5.773662 -5.827080 0.070415 -2.723832 -0.694374 -16.462368 -56.574163 6.861824 -64.135872 5.404891 0.000000 0.000000 0.000000 1.535765 0.386792 0.168913 2.800080 -4.968858 8.577199 4.157590 4.872029 0.700713 -7.158151 32.735874 62.564615 -3.582241 57.147257 -0.234527 0.000000 0.000000 0.000000 
1.612070 67.194763 7.097206 0.000000 0.000000 0.000000 -3.562702 6.637852 0.192858 -88.669010 -8.059856 10.409611 78.934092 5.334126 -0.443642 18.215044 -7.057302 -6.846779 -4.150746 0.018435 -0.139421 0.000000 0.000000 0.000000 -4.100198 7.433128 0.401963 -88.293985 10.112505 -10.675570 80.351322 -2.412208 -1.403329 15.449854 1.441922 8.054289 1.787416 1.054326 0.606909 0.000000 0.000000 0.000000 -3.751357 2.306231 -0.473801 9.897863 -0.552018 -2.790390 3.000476 0.621245 -0.305894 1.026088 2.078917 0.199379 0.000000 0.000000 0.000000 1.955106 0.198876 -0.204222 -1.135298 -3.650919 1.036341 -11.911882 0.154721 -2.176850 0.000000 0.000000 0.000000 2.840156 -0.212932 -0.414185 0.319792 -12.738216 -5.926533 -5.123281 -1.329133 -2.112805 -0.598336 -17.037473 -56.259589 6.972978 -64.583441 5.436730 0.000000 0.000000 0.000000 2.340823 0.296573 0.104146 2.602387 -4.090333 9.059119 3.635981 4.719478 0.411149 -6.663129 30.568809 59.808900 -2.926348 57.885662 -0.322559 0.000000 0.000000 0.000000 
1.420360 67.250313 7.051685 0.000000 0.000000 0.000000 -4.075995 6.438935 0.472756 -88.317556 -7.888693 10.392087 78.872579 5.453868 -0.412711 18.572106 -6.908765 -6.512515 -4.173204 0.071664 -0.213706 0.000000 0.000000 0.000000 -4.545592 7.232971 0.677178 -87.969264 10.067506 -10.696717 80.361697 -2.304592 -1.560735 15.572754 1.542468 7.997170 1.624770 1.031447 0.688290 0.000000 0.000000 0.000000 -4.275260 2.033468 -0.501385 9.491534 -0.801766 -2.591547 4.182792 0.519476 -0.250718 0.881974 1.877243 0.560144 0.000000 0.000000 0.000000 3.071212 0.105706 -0.185461 -1.143540 -3.137407 0.711759 -14.694826 0.654940 -2.572871 0.000000 0.000000 0.000000 3.792528 -0.155082 -0.403617 0.172334 -13.798305 -6.092747 -4.666731 -2.277423 -1.689504 -0.159641 -17.424282 -54.785624 6.877041 -66.910247 5.498559 0.000000 0.000000 0.000000 3.628453 0.202709 -0.017272 2.311210 -2.757773 9.666976 2.967278 4.634699 -0.003274 -6.242149 28.229758 56.015778 -2.206510 61.562032 -0.489213 0.000000 0.000000 0.000000 
1.254824 67.384354 6.996880 0.000000 0.000000 0.000000 -4.598472 6.265233 0.801853 -87.982604 -7.638956 10.353390 78.702501 5.612739 -0.341747 18.969259 -6.787681 -6.264635 -4.207122 0.119512 -0.267508 0.000000 0.000000 0.000000 -4.911079 7.179603 0.987252 -87.580784 10.096383 -10.673708 80.170233 -2.260997 -1.695411 15.768509 1.587546 7.918864 1.429045 0.996946 0.765514 0.000000 0.000000 0.000000 -4.672171 1.642479 -0.435166 8.988631 -1.057451 -2.381379 5.666012 0.415750 -0.243685 0.710616 1.791745 0.759906 0.000000 0.000000 0.000000 4.512922 0.015795 -0.250951 -0.985885 -2.743088 0.184075 -18.157346 1.171143 -3.091560 0.000000 0.000000 0.000000 5.053038 -0.105654 -0.427943 -0.001155 -15.251567 -6.254733 -4.107514 -2.919087 -1.525560 0.381278 -17.320602 -51.764293 6.947344 -71.528289 5.850937 0.000000 0.000000 0.000000 5.232296 0.116463 -0.200587 1.929493 -1.113833 10.353806 2.631095 4.531919 -0.336053 -6.445774 26.021112 51.614555 -1.383562 68.706171 -0.771111 0.000000 0.000000 0.000000 
1.124749 67.539642 6.904980 0.000000 0.000000 0.000000 -4.983728 6.141442 1.133038 -87.770649 -7.323132 10.286331 78.483409 5.791019 -0.250940 19.335092 -6.726498 -6.201556 -4.259813 0.146067 -0.273327 0.000000 0.000000 0.000000 -5.115201 7.205816 1.294316 -87.302378 10.210118 -10.636850 79.929066 -2.288270 -1.758030 16.005838 1.587857 7.858612 1.258537 0.958741 0.807832 0.000000 0.000000 0.000000 -4.859164 1.298567 -0.218749 8.353316 -1.282550 -2.241384 7.297272 0.323576 -0.320096 0.427257 1.763346 0.596271 0.000000 0.000000 0.000000 6.159831 -0.073565 -0.386925 -0.567377 -2.430237 -0.552475 -21.920133 1.567892 -3.623957 0.000000 0.000000 0.000000 6.507828 -0.086573 -0.499646 -0.187584 -16.762865 -6.374284 -3.389940 -3.412711 -1.475328 0.185103 -16.894388 -47.069569 7.996270 -78.441663 7.222115 0.000000 0.000000 0.000000 6.946954 0.017699 -0.428139 1.471335 0.793228 10.945709 2.648384 4.704212 -0.218569 -7.860408 23.969096 46.888576 -0.161936 78.586668 -1.484544 0.000000 0.000000 0.000000 
1.024425 67.650208 6.834320 0.000000 0.000000 0.000000 -5.023774 6.101535 1.435893 -87.797922 -6.934253 10.218963 78.267431 6.013518 -0.191662 19.549892 -6.735741 -6.287056 -4.360870 0.145529 -0.206111 0.000000 0.000000 0.000000 -5.047600 7.256709 1.574712 -87.270891 10.354779 -10.622707 79.767327 -2.374104 -1.739824 16.209897 1.570331 7.869519 1.037931 0.925490 0.790331 0.000000 0.000000 0.000000 -4.787022 1.055514 0.154783 7.568284 -1.473801 -2.201630 8.895302 0.218791 -0.474780 0.033564 1.697041 0.190251 0.000000 0.000000 0.000000 7.844981 -0.192264 -0.564695 0.074509 -2.189170 -1.471179 -25.734703 1.724864 -4.074690 0.000000 0.000000 0.000000 8.031245 -0.120470 -0.606199 -0.361172 -18.005371 -6.322053 -2.719547 -3.869557 -1.672112 -1.430203 -16.509286 -40.802751 19.992025 -86.900415 19.540469 0.000000 0.000000 0.000000 8.598517 -0.129648 -0.667139 0.978048 2.826361 11.218836 2.738433 5.022877 0.347589 -11.083424 22.249830 42.033698 44.046036 89.636848 -45.283191 0.000000 0.000000 0.000000 
